# xmcd CD database file
#
# Track frame offsets:
#	150
#	12448
#	26222
#	37882
#	53584
#	69591
#	82238
#	93953
#	110254
#	137017
#	151269
#	165376
#	183995
#	194695
#	217375
#	231362
#	253043
#	267446
#
# Disc length: 3830 seconds
#
# Revision: 0
# Processed by: cddbd v1.5.2PL0 Copyright (c) Steve Scherf et al.
# Submitted via: CDex 1.50Beta7
#
DISCID=000ef412
DTITLE=Louis Armstrong - LA2
DYEAR=2000
DGENRE=Jazz
TTITLE0=Alexander's Ragtime Band
TTITLE1=All of Me
TTITLE2=Hellzapoppin'
TTITLE3=La vie en rose
TTITLE4=hello brother
TTITLE5=Cabaret
TTITLE6=Whispering
TTITLE7=stars fell on alabama
TTITLE8=Cheek to Cheek
TTITLE9=Dream A Little Dream Of Me
TTITLE10=Georgia On My Mind
TTITLE11=When Your'e Smiling
TTITLE12=It's Been a Long, Long Time
TTITLE13=Do You Know What It Means To Miss New Orleans
TTITLE14=A Kiss To Build A Dream On
TTITLE15=St. James Infirmary
TTITLE16=That lucky old sun
TTITLE17=When You Wish Upon a Star
EXTD=YEAR: 2000
EXTT0=
EXTT1=
EXTT2=
EXTT3=
EXTT4=
EXTT5=
EXTT6=
EXTT7=
EXTT8=
EXTT9=
EXTT10=
EXTT11=
EXTT12=
EXTT13=
EXTT14=
EXTT15=
EXTT16=
EXTT17=
PLAYORDER=
